<?xml version="1.0" encoding="UTF-8"?>
<svg width="1200pt" height="1200pt" version="1.1" viewBox="0 0 1200 1200" xmlns="http://www.w3.org/2000/svg">
 <path d="m216 984h768v-384c0-101.84-40.457-199.52-112.47-271.53-72.012-72.016-169.68-112.47-271.53-112.47s-199.52 40.457-271.53 112.47c-72.016 72.012-112.47 169.68-112.47 271.53zm259.92-168h248.16l72 72h-392.16zm28.078-96v-120c0-34.297 18.297-65.988 48-83.137 29.703-17.152 66.297-17.152 96 0 29.703 17.148 48 48.84 48 83.137v120zm96-408c76.383 0 149.64 30.344 203.65 84.352 54.008 54.012 84.352 127.27 84.352 203.65v244.08l-96-96v-148.08c0-50.922-20.227-99.758-56.234-135.77s-84.844-56.234-135.77-56.234-99.758 20.227-135.77 56.234-56.234 84.844-56.234 135.77v148.08l-96 96v-244.08c0-76.383 30.344-149.64 84.352-203.65 54.012-54.008 127.27-84.352 203.65-84.352z" fill="#554949"/>
</svg>
