<?xml version="1.0" encoding="UTF-8"?>
<svg width="1200pt" height="1200pt" version="1.1" viewBox="0 0 1200 1200" xmlns="http://www.w3.org/2000/svg">
 <g fill="#544949">
  <path d="m600 0c-90.59-0.066406-178.14 32.66-246.47 92.133-68.332 59.477-112.82 141.67-125.26 231.4-12.43 89.73 8.0391 180.93 57.625 256.74 56.543 83.398 87.508 181.48 89.102 282.23 0 9.9453 3.9492 19.484 10.984 26.516 7.0312 7.0352 16.57 10.984 26.516 10.984h375c9.9453 0 19.484-3.9492 26.516-10.984 7.0352-7.0312 10.984-16.57 10.984-26.516 1.6367-100.72 32.57-198.79 89.023-282.23 49.586-75.801 70.055-166.99 57.629-256.71-12.422-89.727-56.902-171.92-125.22-231.39-68.316-59.477-155.85-92.215-246.43-92.168z"/>
  <path d="m787.5 975h-375c-13.398 0-25.777 7.1484-32.477 18.75-6.6992 11.602-6.6992 25.898 0 37.5 6.6992 11.602 19.078 18.75 32.477 18.75h375c13.398 0 25.777-7.1484 32.477-18.75 6.6992-11.602 6.6992-25.898 0-37.5-6.6992-11.602-19.078-18.75-32.477-18.75z"/>
  <path d="m712.5 1125h-225c-13.398 0-25.777 7.1484-32.477 18.75-6.6992 11.602-6.6992 25.898 0 37.5 6.6992 11.602 19.078 18.75 32.477 18.75h225c13.398 0 25.777-7.1484 32.477-18.75 6.6992-11.602 6.6992-25.898 0-37.5-6.6992-11.602-19.078-18.75-32.477-18.75z"/>
 </g>
</svg>
