<?xml version="1.0" encoding="UTF-8"?>
<svg width="1200pt" height="1200pt" version="1.1" viewBox="0 0 1200 1200" xmlns="http://www.w3.org/2000/svg">
 <g fill="#554949">
  <path d="m782.47 257.87-36.359-54.516c-6.793-10.234-22.371-18.551-34.633-18.551h-222.95c-12.289 0-27.863 8.3164-34.703 18.562l-36.324 54.516h-230.54c-56.953 0-103.3 46.32-103.3 103.25v550.78c0 56.965 46.344 103.31 103.3 103.31h826.12c56.941 0 103.26-46.344 103.26-103.31l-0.003906-550.77c0-56.93-46.32-103.25-103.26-103.25l-230.6-0.003906zm-538.57 201.66c-32.125 0-58.176-26.039-58.176-58.176 0-32.137 26.039-58.176 58.176-58.176 32.137 0 58.176 26.039 58.176 58.176 0 32.137-26.039 58.176-58.176 58.176zm356.1 417.95c-133.04 0-240.96-107.87-240.96-240.93 0-133.11 107.91-240.97 240.96-240.97 133.07 0 240.97 107.87 240.97 240.97 0 133.06-107.91 240.93-240.97 240.93z"/>
  <path d="m747.37 636.54c0 81.391-65.98 147.37-147.37 147.37s-147.37-65.98-147.37-147.37c0-81.391 65.98-147.37 147.37-147.37s147.37 65.98 147.37 147.37"/>
 </g>
</svg>
