<?xml version="1.0" encoding="UTF-8"?>
<svg width="1200pt" height="1200pt" version="1.1" viewBox="0 0 1200 1200" xmlns="http://www.w3.org/2000/svg">
 <path d="m981.6 561.6-122.4-157.2c-1.1992-2.3984-3.6016-3.6016-4.8008-4.8008l-246-130.8c-6-2.3984-12-2.3984-18 0l-243.6 130.8c-2.3984 1.1992-3.6016 2.3984-4.8008 4.8008l-123.6 157.2c-6 7.1992-3.6016 16.801 3.6016 21.602 8.3984 4.8008 18 3.6016 24-3.6016l13.199-16.801v355.2c0 8.3984 7.1992 15.602 16.801 15.602h134.4v-230.4l162 123.6-139.2 105.6h61.199l108-82.801 108 82.801h61.199l-135.6-105.6 152.4-116.4v222h134.4c9.6016 0 16.801-7.1992 16.801-15.602l0.003906-354 13.199 16.801c3.6016 4.8008 8.3984 7.1992 14.398 7.1992 3.6016 0 7.1992-1.1992 9.6016-2.3984 8.3984-6.0039 9.5977-15.602 4.8008-22.801zm-460.8-124.8c0-8.3984 7.1992-15.602 16.801-15.602h124.8c9.6016 0 16.801 7.1992 16.801 15.602v112.8c0 8.3984-7.1992 15.602-16.801 15.602l-124.8-0.003906c-9.6016 0-16.801-7.1992-16.801-15.602zm84 367.2-156-118.8h310.8z" fill="#554949"/>
</svg>
