<?xml version="1.0" encoding="UTF-8"?>
<svg width="1200pt" height="1200pt" version="1.1" viewBox="0 0 1200 1200" xmlns="http://www.w3.org/2000/svg">
    <g fill="#554949">
        <path d="m155.69 1076.3c0 43.066-34.945 78.012-77.844 78.012-12.422 0-24.516-2.9766-35.113-8.4492-26.34-13.246-42.73-39.922-42.73-69.562 0-29.484 16.391-56.148 42.898-69.562 10.441-5.4609 22.523-8.2812 34.945-8.2812 40.246 0 73.535 29.977 77.352 69.562z"/>
        <path d="m976.39 166.62h-759.59c-11.102 0-45.047-1.3203-54.492-3.6484-17.219-4.3086-40.078-22.031-47.699-38.93-4.1367-9.1055-5.9492-19.039-6.2852-29.469-0.16797-5.8086-0.16797-5.8086-2.6523-11.27-7.1172-22.355-27.996-37.762-51.672-37.762-29.82 0-54 24.18-54 54v921.41c8.7852-12.59 20.699-23.027 34.945-30.145 12.926-6.793 27.66-10.273 42.898-10.273 49.188 0 89.773 36.77 94.738 85.465l0.49219 9.2773c0 43.391 34.945 78.348 77.844 78.348l949.08 0.82812z"/>
    </g>
</svg>
