<?xml version="1.0" encoding="UTF-8"?>
<svg width="1200pt" height="1200pt" version="1.1" viewBox="0 0 1200 1200" xmlns="http://www.w3.org/2000/svg">
 <path d="m599.71 257.57c-5.5117 0.050782-10.773 2.2969-14.625 6.2305-3.8555 3.9375-5.9844 9.2461-5.918 14.758v62.316c-0.125 5.582 2.0039 10.98 5.9102 14.969 3.9023 3.9922 9.25 6.2422 14.832 6.2422 5.5859 0 10.934-2.25 14.836-6.2422 3.9062-3.9883 6.0352-9.3867 5.9102-14.969v-62.316c0.066406-5.582-2.1172-10.949-6.0586-14.898-3.9414-3.9492-9.3086-6.1445-14.887-6.0898zm-220.22 91.25-0.003907-0.003906c-5.5508-0.007812-10.875 2.207-14.781 6.1562-3.9062 3.9453-6.0703 9.293-6 14.844 0.066407 5.5547 2.3555 10.848 6.3594 14.699l43.965 43.965h-0.003906c3.8516 4.0352 9.1641 6.3555 14.742 6.4297 5.5781 0.074219 10.949-2.1016 14.906-6.0352s6.1602-9.2969 6.1172-14.875-2.332-10.902-6.3477-14.773l-44.125-44.125c-3.8945-4.0078-9.2422-6.2695-14.832-6.2812zm440.45 0v-0.003906c-5.3906 0.16016-10.508 2.4141-14.266 6.2812l-44.086 44.125h0.003906c-4.1562 3.8359-6.5664 9.1992-6.6758 14.855-0.10547 5.6523 2.0977 11.105 6.1055 15.094 4.0078 3.9883 9.4688 6.1719 15.121 6.043 5.6523-0.13281 11.008-2.5664 14.824-6.7344l43.965-43.965c4.0508-3.8945 6.3516-9.2695 6.3711-14.891 0.015625-5.6211-2.2461-11.008-6.2734-14.93-4.0273-3.9219-9.4727-6.043-15.09-5.8789zm-219.94 54.215c-91.414 0-166.01 74.594-166.01 166.01 0.0625 50.043 22.703 96.641 60.332 127.72 9.7109 8.0195 20.383 27.438 20.383 35.535v30.348c0 27.895 23.117 50.973 51.016 50.973h68.598c27.895 0 50.973-23.078 50.973-50.973v-30.188c0-8.1016 10.672-27.516 20.383-35.535 37.668-31.105 60.312-77.785 60.332-127.88 0-91.414-74.594-166.01-166.01-166.01zm-64.305 435.71v-0.003907c-7.2852 0.54688-13.75 4.8828-17.023 11.418-3.2734 6.5352-2.8711 14.312 1.0586 20.473 3.9297 6.1641 10.809 9.8086 18.113 9.6016h124.36c5.5859 0.12891 10.988-1.9961 14.984-5.9023 4-3.9023 6.2539-9.2578 6.2539-14.844 0-5.5898-2.2539-10.941-6.2539-14.844-3.9961-3.9062-9.3984-6.0312-14.984-5.9023h-124.36c-0.71484-0.035156-1.4336-0.035156-2.1484 0zm43.477 62.195h0.003906c-5.582-0.125-10.98 2.0078-14.969 5.9102-3.9922 3.9023-6.2422 9.25-6.2422 14.836 0 5.582 2.25 10.93 6.2422 14.832 3.9883 3.9023 9.3867 6.0352 14.969 5.9141h41.488c5.582 0.12109 10.98-2.0117 14.969-5.9141 3.9922-3.9023 6.2422-9.25 6.2422-14.832 0-5.5859-2.25-10.934-6.2422-14.836-3.9883-3.9023-9.3867-6.0352-14.969-5.9102z" fill="#2a1b1b"/>
</svg>
