<?xml version="1.0" encoding="UTF-8"?>
<svg width="1200pt" height="1200pt" version="1.1" viewBox="0 0 1200 1200" xmlns="http://www.w3.org/2000/svg">
 <path d="m882 301.2c-74.398 60-151.2 145.2-122.4 242.4-90-73.199-91.199-319.2-38.398-476.4-301.2 111.6-306 346.8-294 432-27.602-81.602-66-118.8-165.6-145.2 46.797 162-145.2 313.2-109.2 508.8 30 159.6 128.4 244.8 238.8 283.2-72-172.8 110.4-234 118.8-360 16.801 16.801 48 51.602 26.398 120 44.398-27.602 112.8-148.8 80.398-228 105.6 48 254.4 276 192 444 102-44.398 184.8-115.2 219.6-208.8 115.2-316.8-189.6-362.4-146.4-612z" fill="#2a1b1b"/>
</svg>
