<?xml version="1.0" encoding="UTF-8"?>
<svg width="1200pt" height="1200pt" version="1.1" viewBox="0 0 1200 1200" xmlns="http://www.w3.org/2000/svg">
 <path d="m609.36 163.44c-0.99609-4.3711-4.8789-7.4688-9.3594-7.4688s-8.3633 3.0977-9.3594 7.4688c-40.801 328.68-249.6 396-249.6 624.96v-0.003906c1.457 67.734 29.391 132.2 77.805 179.59 48.418 47.383 113.47 73.922 181.21 73.922 67.75 0 132.8-26.539 181.21-73.922 48.418-47.387 76.348-111.85 77.805-179.59 0-228.48-208.8-296.4-249.72-624.96zm-39.359 363.36c-2.7617 10.078-5.6406 20.52-8.7617 31.32-18.602 65.879-39.602 140.52-39.602 226.92 0 46.801-27.602 63.359-53.52 63.359l0.003906-0.003906c-14.238-0.0625-27.867-5.7695-37.902-15.871-10.035-10.102-15.652-23.77-15.617-38.008 0-102.12 49.078-168.72 92.52-228 13.68-18.359 26.398-36 36.84-53.16 2.7031-3.9688 7.1953-6.3438 12-6.3438 4.8008 0 9.293 2.375 12 6.3438 2.7852 3.8984 3.543 8.8906 2.0391 13.441z" fill="#2a1b1b"/>
</svg>
