<?xml version="1.0" encoding="UTF-8"?>
<svg width="1200pt" height="1200pt" version="1.1" viewBox="0 0 1200 1200" xmlns="http://www.w3.org/2000/svg">
 <g fill="#2a1b1b">
  <path d="m830.25 324.92c-83.043 0.21094-163.61 28.293-228.79 79.754-65.18 51.461-111.19 123.32-130.66 204.05-22.371-8.1719-45.938-12.578-69.75-13.043-62.156 0-121.77 24.691-165.72 68.645-43.953 43.953-68.645 103.57-68.645 165.73 0 62.156 24.691 121.77 68.645 165.72s103.57 68.648 165.72 68.648h429.2c96.848-1.8672 189.1-41.652 256.93-110.8 67.828-69.152 105.83-162.15 105.83-259.02 0-96.863-38-189.86-105.83-259.02-67.832-69.148-160.09-108.93-256.93-110.8z"/>
  <path d="m380.05 532.79c13.824 0.03125 27.613 1.3672 41.188 3.9805 20.598-56.93 53.332-108.69 95.938-151.7 42.605-43.012 94.059-76.23 150.79-97.363-40.137-54.625-94.539-97.145-157.25-122.89-62.707-25.746-131.29-33.723-198.23-23.062-66.941 10.664-129.66 39.559-181.26 83.512-51.602 43.957-90.102 101.27-111.28 165.67s-24.207 133.38-8.7617 199.38c15.441 66.004 48.766 126.48 96.312 174.79 10.488-64.758 43.66-123.68 93.586-166.23 49.926-42.555 113.36-65.977 178.96-66.074z"/>
 </g>
</svg>
